<svg width="24" height="24" viewBox="0 0 24 24" fill="none" xmlns="http://www.w3.org/2000/svg">
<path d="M10.325 8.825C10.325 9.65343 9.65343 10.325 8.82501 10.325H4.25001C3.42158 10.325 2.75001 9.65343 2.75001 8.825V4.25C2.75001 3.425 3.42501 2.75 4.25001 2.75H8.82501C9.65343 2.75 10.325 3.42157 10.325 4.25V8.825Z" stroke="#A1A1A1" stroke-width="2" stroke-miterlimit="10"/>
<path d="M21.25 8.825C21.25 9.65343 20.5784 10.325 19.75 10.325H15.175C14.3466 10.325 13.675 9.65343 13.675 8.825V4.25C13.675 3.42157 14.3466 2.75 15.175 2.75H19.75C20.575 2.75 21.25 3.425 21.25 4.25V8.825Z" stroke="#A1A1A1" stroke-width="2" stroke-miterlimit="10"/>
<path d="M19.75 21.25H15.175C14.3466 21.25 13.675 20.5784 13.675 19.75V15.175C13.675 14.3466 14.3466 13.675 15.175 13.675H19.75C20.5784 13.675 21.25 14.3466 21.25 15.175V19.75C21.25 20.575 20.575 21.25 19.75 21.25Z" stroke="#A1A1A1" stroke-width="2" stroke-miterlimit="10"/>
<path d="M10.325 19.75C10.325 20.5784 9.65344 21.25 8.82501 21.25H4.25001C3.42501 21.25 2.75001 20.575 2.75001 19.75V15.175C2.75001 14.3466 3.42158 13.675 4.25001 13.675H8.82501C9.65343 13.675 10.325 14.3466 10.325 15.175V19.75Z" stroke="#A1A1A1" stroke-width="2" stroke-miterlimit="10"/>
</svg>
