<svg width="20" height="21" viewBox="0 0 20 21" fill="none" xmlns="http://www.w3.org/2000/svg">
<g id="File / Note_Edit">
<path id="Vector" d="M8.33354 3.83333H6.0002C5.06678 3.83333 4.59972 3.83333 4.2432 4.01499C3.9296 4.17478 3.67482 4.42956 3.51503 4.74316C3.33337 5.09968 3.33337 5.56674 3.33337 6.50016V14.5002C3.33337 15.4336 3.33337 15.9 3.51503 16.2566C3.67482 16.5702 3.9296 16.8254 4.2432 16.9852C4.59938 17.1667 5.06587 17.1667 5.99747 17.1667H14.0026C14.9342 17.1667 15.4 17.1667 15.7562 16.9852C16.0698 16.8254 16.3254 16.5699 16.4852 16.2563C16.6667 15.9002 16.6667 15.4342 16.6667 14.5026V12.1667M13.3334 4.66667L8.33337 9.66667V12.1667H10.8334L15.8334 7.16667M13.3334 4.66667L15.8334 2.16667L18.3334 4.66667L15.8334 7.16667M13.3334 4.66667L15.8334 7.16667" stroke="#313131" stroke-width="2" stroke-linecap="round" stroke-linejoin="round"/>
</g>
</svg>
